<svg xmlns="http://www.w3.org/2000/svg" viewBox="0 0 900 260" role="img" aria-labelledby="title desc"><title id="title">DerivFX</title><desc id="desc">DerivFX trading and automation logo</desc><defs><linearGradient id="navy" x1="0" y1="0" x2="1" y2="1"><stop offset="0" stop-color="#0b2b66"/><stop offset="1" stop-color="#164fa8"/></linearGradient><linearGradient id="red" x1="0" y1="0" x2="1" y2="1"><stop offset="0" stop-color="#ff4b55"/><stop offset="1" stop-color="#d90019"/></linearGradient><filter id="glow"><feGaussianBlur stdDeviation="5" result="b"/><feMerge><feMergeNode in="b"/><feMergeNode in="SourceGraphic"/></feMerge></filter></defs><rect width="900" height="260" rx="34" fill="#071a3b"/><g transform="translate(35 28)"><rect x="0" y="0" width="205" height="205" rx="48" fill="url(#navy)" stroke="#2b86ff" stroke-width="5"/><path d="M35 151c31-68 75-103 119-91 20 5 37 1 58-13-15 45-50 77-91 86-31 7-60 1-86 18z" fill="none" stroke="#fff" stroke-width="13" stroke-linecap="round"/><path d="M58 139V91M91 139V68M124 139V98" stroke="#fff" stroke-width="13" stroke-linecap="round"/><path d="M54 121l37-32 33 14 49-58" fill="none" stroke="url(#red)" stroke-width="13" stroke-linecap="round" stroke-linejoin="round"/><path d="M167 45l18-4-5 18" fill="none" stroke="#ff4050" stroke-width="10" stroke-linecap="round"/></g><text x="275" y="145" font-family="Arial,Helvetica,sans-serif" font-size="104" font-weight="800" letter-spacing="-5" fill="#fff">Deriv</text><text x="575" y="145" font-family="Arial,Helvetica,sans-serif" font-size="104" font-weight="900" letter-spacing="-5" fill="url(#red)">FX</text><path d="M290 178H790" stroke="#1d78ff" stroke-width="3"/><text x="292" y="211" font-family="Arial,Helvetica,sans-serif" font-size="22" font-weight="700" letter-spacing="7" fill="#dbe9ff">TRADE • AUTOMATE • PROFIT</text><path d="M765 72l9-18 9 18 19-9-10 18 18 10-20 3-3 20-10-18-18 9 9-18-18-10 20-3z" fill="#ff4050" filter="url(#glow)"/></svg>